<svg viewBox="0 0 1000 360" xmlns="http://www.w3.org/2000/svg" font-family="Apple SD Gothic Neo, Pretendard, sans-serif">
  <rect width="1000" height="360" rx="12" fill="#ffffff" stroke="#111111" stroke-width="2"/>
  <text x="500" y="56" text-anchor="middle" fill="#111111" font-size="24" font-weight="700">같은 엔진, 두 얼굴 — 스탯 카드에서 에이전트 평가로</text>

  <g>
    <g transform="translate(60,110)">
      <rect width="190" height="80" rx="8" fill="#ffffff" stroke="#111111" stroke-width="2"/>
      <text x="95" y="35" text-anchor="middle" fill="#111111" font-size="16" font-weight="700">① 수집</text>
      <text x="95" y="60" text-anchor="middle" fill="#555555" font-size="13">도구 호출 (GitHub API)</text>
    </g>
    <g transform="translate(290,110)">
      <rect width="190" height="80" rx="8" fill="#111111"/>
      <text x="95" y="35" text-anchor="middle" fill="#ffffff" font-size="16" font-weight="700">② 증거 채점</text>
      <text x="95" y="60" text-anchor="middle" fill="#cccccc" font-size="13">결정론 · 근거 repo 필수</text>
    </g>
    <g transform="translate(520,110)">
      <rect width="190" height="80" rx="8" fill="#ffffff" stroke="#111111" stroke-width="2"/>
      <text x="95" y="35" text-anchor="middle" fill="#111111" font-size="16" font-weight="700">③ 검증</text>
      <text x="95" y="60" text-anchor="middle" fill="#555555" font-size="13">LLM 보강은 근거 대조</text>
    </g>
    <g transform="translate(750,110)">
      <rect width="190" height="80" rx="8" fill="#ffffff" stroke="#111111" stroke-width="2"/>
      <text x="95" y="35" text-anchor="middle" fill="#111111" font-size="16" font-weight="700">④ 렌더 + trace</text>
      <text x="95" y="60" text-anchor="middle" fill="#555555" font-size="13">자기완결 SVG</text>
    </g>
  </g>
  <g stroke="#111111" stroke-width="2" fill="none">
    <path d="M255 150 H 282"/><path d="M485 150 H 512"/><path d="M715 150 H 742"/>
  </g>
  <g fill="#111111">
    <path d="M286 150 l -11 -6 v 12 z"/><path d="M516 150 l -11 -6 v 12 z"/><path d="M746 150 l -11 -6 v 12 z"/>
  </g>

  <line x1="60" y1="232" x2="940" y2="232" stroke="#dddddd" stroke-width="1.5"/>
  <g font-size="15">
    <text x="70" y="272" fill="#111111" font-weight="700">지금: 개발자 스탯 카드</text>
    <text x="70" y="298" fill="#555555">공개 repo · 언어 · 스타 → 6축 능력치 + 레벨 + 클래스</text>
    <text x="530" y="272" fill="#111111" font-weight="700">다음: 에이전트 평가 하네스</text>
    <text x="530" y="298" fill="#555555">도구사용 정확도 · 성공률 · 에스컬레이션율 · 지연 · 비용</text>
  </g>
</svg>
